<svg width="44" height="44" viewBox="0 0 44 44" fill="none" xmlns="http://www.w3.org/2000/svg">
<path fill-rule="evenodd" clip-rule="evenodd" d="M38.3378 11.2704L39.304 8.89579C39.304 8.89579 38.0742 7.57659 36.581 6.08149C35.0878 4.58639 31.9256 5.46586 31.9256 5.46586L28.3243 1.375H22H15.6758L12.0744 5.46586C12.0744 5.46586 8.91231 4.58639 7.41908 6.08149C5.92585 7.57659 4.69613 8.89579 4.69613 8.89579L5.66234 11.2704L4.43262 14.7882C4.43262 14.7882 8.04931 28.504 8.47313 30.179C9.30758 33.477 9.87852 34.7522 12.2501 36.4232C14.6217 38.0942 18.9257 40.9965 19.6284 41.4362C20.3311 41.876 21.2095 42.625 22 42.625C22.7906 42.625 23.669 41.876 24.3717 41.4362C25.0743 40.9965 29.3784 38.0942 31.75 36.4232C34.1216 34.7522 34.6925 33.477 35.527 30.179C35.9507 28.504 39.5675 14.7882 39.5675 14.7882L38.3378 11.2704Z" fill="url(#paint0_linear_19262_13880)"/>
<path fill-rule="evenodd" clip-rule="evenodd" d="M30.9155 8.06045C30.9155 8.06045 35.5477 13.6671 35.5477 14.8654C35.5477 16.0636 34.965 16.3799 34.3791 17.0028C33.7932 17.6258 31.2345 20.3463 30.9059 20.6956C30.5773 21.0451 29.8932 21.5748 30.2956 22.5282C30.6979 23.4816 31.2915 24.6949 30.6315 25.9254C29.9713 27.156 28.8404 27.9773 28.1157 27.8415C27.3911 27.7056 25.6892 26.8152 25.0634 26.4084C24.4375 26.0017 22.454 24.3637 22.454 23.737C22.454 23.1104 24.5044 21.9852 24.8831 21.7295C25.2621 21.474 26.9898 20.4845 27.0252 20.0961C27.0605 19.7076 27.0471 19.5937 26.5372 18.6341C26.0273 17.6743 25.109 16.3936 25.2619 15.5415C25.4147 14.6895 26.8957 14.2464 27.9525 13.8468C29.0092 13.4472 31.0439 12.6925 31.298 12.5752C31.5523 12.4578 31.4866 12.346 30.7166 12.2729C29.9467 12.1999 27.7616 11.9095 26.7765 12.1844C25.7914 12.4593 24.1085 12.8776 23.9722 13.0994C23.8358 13.3212 23.7156 13.3287 23.8556 14.0938C23.9955 14.8589 24.7163 18.5304 24.7862 19.1825C24.8562 19.8346 24.9931 20.2658 24.2908 20.4265C23.5885 20.5873 22.4063 20.8664 22 20.8664C21.5938 20.8664 20.4115 20.5873 19.7093 20.4265C19.0069 20.2658 19.1438 19.8346 19.2138 19.1825C19.2838 18.5304 20.0045 14.8589 20.1445 14.0938C20.2844 13.3287 20.1642 13.3212 20.0279 13.0994C19.8916 12.8776 18.2086 12.4593 17.2235 12.1844C16.2384 11.9095 14.0534 12.1999 13.2834 12.2729C12.5135 12.346 12.4478 12.4578 12.702 12.5752C12.9562 12.6925 14.9909 13.4472 16.0476 13.8468C17.1044 14.2464 18.5854 14.6895 18.7382 15.5415C18.891 16.3936 17.9727 17.6743 17.4629 18.6341C16.953 19.5937 16.9395 19.7076 16.9749 20.0961C17.0102 20.4845 18.738 21.474 19.1169 21.7295C19.4957 21.9852 21.546 23.1104 21.546 23.737C21.546 24.3637 19.5626 26.0017 18.9367 26.4084C18.3109 26.8152 16.609 27.7056 15.8844 27.8415C15.1597 27.9773 14.0288 27.156 13.3686 25.9254C12.7085 24.6949 13.3021 23.4816 13.7044 22.5282C14.1068 21.5748 13.4228 21.0451 13.0941 20.6956C12.7656 20.3463 10.2068 17.6258 9.62089 17.0028C9.03502 16.3799 8.45239 16.0636 8.45239 14.8654C8.45239 13.6671 13.0846 8.06045 13.0846 8.06045C13.0846 8.06045 16.9933 8.808 17.5203 8.808C18.0474 8.808 19.1893 8.36827 20.2433 8.01648C21.2973 7.66469 22 7.66214 22 7.66214C22 7.66214 22.7027 7.66469 23.7568 8.01648C24.8108 8.36827 25.9527 8.808 26.4797 8.808C27.0068 8.808 30.9155 8.06045 30.9155 8.06045ZM27.4429 29.5069C27.7296 29.6867 27.5548 30.0255 27.2936 30.2104C27.0324 30.3953 23.5223 33.1167 23.1817 33.4175C22.841 33.7184 22.3404 34.2152 22 34.2152C21.6597 34.2152 21.159 33.7184 20.8184 33.4175C20.4776 33.1167 16.9677 30.3953 16.7064 30.2104C16.4452 30.0255 16.2704 29.6867 16.5571 29.5069C16.8439 29.3272 17.741 28.8737 18.9789 28.2323C20.2166 27.591 21.7593 27.0457 22 27.0457C22.2408 27.0457 23.7834 27.591 25.0213 28.2323C26.2591 28.8737 27.1562 29.3272 27.4429 29.5069Z" fill="white"/>
<path d="M31.9256 5.46586L28.3243 1.375H22H15.6758L12.0744 5.46586C12.0744 5.46586 8.9123 4.58639 7.41907 6.08149C7.41907 6.08149 11.6353 5.70041 13.0846 8.0603C13.0846 8.0603 16.9933 8.80785 17.5203 8.80785C18.0474 8.80785 19.1892 8.36811 20.2433 8.01633C21.2973 7.66454 22 7.66199 22 7.66199C22 7.66199 22.7027 7.66454 23.7568 8.01633C24.8108 8.36811 25.9527 8.80785 26.4797 8.80785C27.0068 8.80785 30.9155 8.0603 30.9155 8.0603C32.3648 5.70041 36.581 6.08149 36.581 6.08149C35.0878 4.58639 31.9256 5.46586 31.9256 5.46586Z" fill="url(#paint1_linear_19262_13880)"/>
<defs>
<linearGradient id="paint0_linear_19262_13880" x1="4.43262" y1="2092.98" x2="3517.92" y2="2092.98" gradientUnits="userSpaceOnUse">
<stop stop-color="#FF5500"/>
<stop offset="0.409877" stop-color="#FF5500"/>
<stop offset="0.581981" stop-color="#FF2000"/>
<stop offset="1" stop-color="#FF2000"/>
</linearGradient>
<linearGradient id="paint1_linear_19262_13880" x1="70.0717" y1="378.261" x2="2923.61" y2="378.261" gradientUnits="userSpaceOnUse">
<stop stop-color="#FF452A"/>
<stop offset="1" stop-color="#FF2000"/>
</linearGradient>
</defs>
</svg>
