<svg width="45" height="44" viewBox="0 0 45 44" fill="none" xmlns="http://www.w3.org/2000/svg">
<path d="M22.7431 3.44073C22.7431 3.44073 33.6892 2.9502 39.4804 13.9143H21.8154C21.8154 13.9143 18.4892 13.8082 15.64 17.8386C14.8184 19.5223 13.9437 21.2723 14.9244 24.7061C13.5064 22.3064 7.37073 11.6738 7.37073 11.6738C7.37073 11.6738 11.7174 3.87824 22.7563 3.45399L22.7431 3.44073Z" fill="#EF3F36"/>
<path d="M38.9106 31.2555C38.9106 31.2555 33.8748 40.9601 21.4709 40.4696L30.2968 25.2232C30.2968 25.2232 32.0726 22.3993 29.992 17.9315C28.9318 16.3671 27.8452 14.7497 24.3731 13.8747C27.1693 13.8481 39.4672 13.8747 39.4672 13.8747C39.4672 13.8747 44.0656 21.5111 38.9371 31.2555H38.9106Z" fill="#FCD900"/>
<path d="M6.65507 31.3349C6.65507 31.3349 0.757925 22.134 7.38393 11.6604L16.223 26.9068C16.223 26.9068 17.8 29.85 22.7165 30.2875C24.5983 30.1549 26.5596 30.0223 29.0377 27.4636C27.6728 29.8898 21.4841 40.4959 21.4841 40.4959C21.4841 40.4959 12.5655 40.655 6.65507 31.3481V31.3349Z" fill="#61BC5B"/>
<path d="M21.4443 40.5624L23.9357 30.2214C23.9357 30.2214 26.6656 30.0093 28.9582 27.5036C27.5403 29.996 21.4443 40.5624 21.4443 40.5624Z" fill="#5AB055"/>
<path d="M14.4209 22.1211C14.4244 19.927 15.299 17.8242 16.8523 16.2752C18.4056 14.7262 20.5103 13.858 22.7034 13.8615C24.8966 13.8651 26.9985 14.74 28.5468 16.294C30.0951 17.8479 30.9629 19.9535 30.9594 22.1476C30.9577 23.234 30.7421 24.3094 30.3249 25.3124C29.9077 26.3155 29.2971 27.2265 28.528 27.9935C27.7589 28.7604 26.8464 29.3683 25.8424 29.7825C24.8385 30.1966 23.7628 30.4089 22.6769 30.4071C21.591 30.4054 20.516 30.1897 19.5134 29.7723C18.5108 29.355 17.6002 28.7441 16.8335 27.9747C15.2852 26.4208 14.4174 24.3152 14.4209 22.1211Z" fill="white"/>
<path d="M15.8124 22.1208C15.7559 21.1812 15.8923 20.24 16.2133 19.3551C16.5343 18.4703 17.033 17.6606 17.6787 16.9759C18.3244 16.2912 19.1034 15.7461 19.9677 15.3741C20.832 15.0021 21.7633 14.8112 22.7043 14.813C23.6452 14.8148 24.5757 15.0093 25.4386 15.3847C26.3015 15.76 27.0784 16.3081 27.7214 16.9953C28.3645 17.6824 28.8601 18.4941 29.1777 19.3801C29.4952 20.2662 29.6281 21.208 29.5679 22.1473C29.4559 23.8982 28.6808 25.5405 27.4006 26.7396C26.1204 27.9387 24.4314 28.6043 22.6777 28.6009C20.924 28.5976 19.2375 27.9254 17.962 26.7214C16.6864 25.5174 15.9176 23.8721 15.8124 22.1208Z" fill="url(#paint0_linear_19262_13852)"/>
<path d="M39.4407 13.8881L29.2101 16.8698C29.2101 16.8698 27.6729 14.6169 24.3599 13.8881C27.2356 13.8616 39.4407 13.8881 39.4407 13.8881Z" fill="#EACA05"/>
<path d="M14.7256 24.3348L7.38403 11.6604L14.9509 19.1378C14.9509 19.1378 14.1823 20.7287 14.4739 23.009L14.7389 24.3215L14.7256 24.3348Z" fill="#DF3A32"/>
<defs>
<linearGradient id="paint0_linear_19262_13852" x1="22.7021" y1="15.3448" x2="22.7021" y2="28.5747" gradientUnits="userSpaceOnUse">
<stop stop-color="#86BBE5"/>
<stop offset="1" stop-color="#1072BA"/>
</linearGradient>
</defs>
</svg>
