<svg width="45" height="44" viewBox="0 0 45 44" fill="none" xmlns="http://www.w3.org/2000/svg">
<path d="M37.5426 31.0694C35.4574 32.1349 33.1487 32.6894 30.807 32.687C23.9521 32.687 17.9723 27.9668 17.9723 21.9075C17.9827 21.0961 18.2093 20.3022 18.6288 19.6077C19.0484 18.9131 19.6456 18.3431 20.3589 17.9563C14.1537 18.2215 12.5493 24.6786 12.5493 28.4707C12.5493 39.184 22.4273 40.2712 24.5487 40.2712C25.7023 40.2712 27.426 39.9265 28.4734 39.6082L28.6591 39.5419C32.6534 38.1575 36.0576 35.4547 38.3116 31.8782C38.3732 31.7694 38.3981 31.6437 38.3828 31.5196C38.3675 31.3956 38.3127 31.2797 38.2266 31.1891C38.1404 31.0985 38.0275 31.038 37.9043 31.0164C37.7812 30.9949 37.6544 31.0135 37.5426 31.0694Z" fill="url(#paint0_linear_19262_13890)"/>
<path opacity="0.35" d="M37.5426 31.0694C35.4574 32.1349 33.1487 32.6894 30.807 32.687C23.9521 32.687 17.9723 27.9668 17.9723 21.9075C17.9827 21.0961 18.2093 20.3022 18.6288 19.6077C19.0484 18.9131 19.6456 18.3431 20.3589 17.9563C14.1537 18.2215 12.5493 24.6786 12.5493 28.4707C12.5493 39.184 22.4273 40.2712 24.5487 40.2712C25.7023 40.2712 27.426 39.9265 28.4734 39.6082L28.6591 39.5419C32.6534 38.1575 36.0576 35.4547 38.3116 31.8782C38.3732 31.7694 38.3981 31.6437 38.3828 31.5196C38.3675 31.3956 38.3127 31.2797 38.2266 31.1891C38.1404 31.0985 38.0275 31.038 37.9043 31.0164C37.7812 30.9949 37.6544 31.0135 37.5426 31.0694Z" fill="url(#paint1_radial_19262_13890)"/>
<path d="M19.3644 38.4413C18.0748 37.6391 16.9572 36.5891 16.0762 35.352C15.0685 33.9724 14.375 32.389 14.0443 30.7129C13.7135 29.0368 13.7536 27.3087 14.1617 25.6497C14.5698 23.9908 15.3361 22.4412 16.4066 21.1099C17.4772 19.7785 18.8262 18.6976 20.3589 17.9429C20.8097 17.7308 21.5787 17.3462 22.6129 17.3728C23.8304 17.3862 24.995 17.8722 25.8609 18.7282C26.7267 19.5842 27.2261 20.7431 27.2536 21.9604C27.2536 21.9339 30.807 10.425 15.6519 10.425C9.28756 10.425 4.05024 16.4579 4.05024 21.7615C4.01221 24.7231 4.68344 27.6509 6.00787 30.3002C7.33229 32.9495 9.27146 35.2434 11.6634 36.9902C14.0553 38.7371 16.8305 39.8863 19.7572 40.3417C22.6839 40.7971 25.677 40.5456 28.4867 39.6081C26.9753 40.0865 25.3781 40.2312 23.8054 40.032C22.2328 39.8328 20.7221 39.2946 19.3777 38.4546L19.3644 38.4413Z" fill="url(#paint2_linear_19262_13890)"/>
<path opacity="0.41" d="M19.3644 38.4413C18.0748 37.6391 16.9572 36.5891 16.0762 35.352C15.0685 33.9724 14.375 32.389 14.0443 30.7129C13.7135 29.0368 13.7536 27.3087 14.1617 25.6497C14.5698 23.9908 15.3361 22.4412 16.4066 21.1099C17.4772 19.7785 18.8262 18.6976 20.3589 17.9429C20.8097 17.7308 21.5787 17.3462 22.6129 17.3728C23.8304 17.3862 24.995 17.8722 25.8609 18.7282C26.7267 19.5842 27.2261 20.7431 27.2536 21.9604C27.2536 21.9339 30.807 10.425 15.6519 10.425C9.28756 10.425 4.05024 16.4579 4.05024 21.7615C4.01221 24.7231 4.68344 27.6509 6.00787 30.3002C7.33229 32.9495 9.27146 35.2434 11.6634 36.9902C14.0553 38.7371 16.8305 39.8863 19.7572 40.3417C22.6839 40.7971 25.677 40.5456 28.4867 39.6081C26.9753 40.0865 25.3781 40.2312 23.8054 40.032C22.2328 39.8328 20.7221 39.2946 19.3777 38.4546L19.3644 38.4413Z" fill="url(#paint3_radial_19262_13890)"/>
<path d="M26.1264 25.0233C26.0071 25.1692 25.6491 25.3813 25.6491 25.8454C25.6491 26.2166 25.8878 26.5879 26.3253 26.8928C28.4202 28.3513 32.3449 28.1524 32.3582 28.1524C34.6993 28.128 36.9365 27.1817 38.5846 25.5188C40.2327 23.8558 41.1588 21.6102 41.1622 19.2689C41.202 16.0204 39.9954 13.8592 39.5181 12.9046C36.442 6.89825 29.8124 3.43765 22.5995 3.43765C17.722 3.43715 13.0403 5.35641 9.56662 8.78043C6.09296 12.2044 4.10654 16.8581 4.03687 21.7351C4.10316 16.4315 9.367 12.1621 15.6385 12.1621C16.1424 12.1621 19.0328 12.2151 21.7377 13.6206C23.6169 14.5576 25.173 16.0352 26.206 17.8635C27.0943 19.4015 27.2667 21.3638 27.2667 22.1329C27.2667 22.9151 26.8689 24.0687 26.1264 25.0233Z" fill="url(#paint4_radial_19262_13890)"/>
<path d="M26.1264 25.0233C26.0071 25.1692 25.6491 25.3813 25.6491 25.8454C25.6491 26.2166 25.8878 26.5879 26.3253 26.8928C28.4202 28.3513 32.3449 28.1524 32.3582 28.1524C34.6993 28.128 36.9365 27.1817 38.5846 25.5188C40.2327 23.8558 41.1588 21.6102 41.1622 19.2689C41.202 16.0204 39.9954 13.8592 39.5181 12.9046C36.442 6.89825 29.8124 3.43765 22.5995 3.43765C17.722 3.43715 13.0403 5.35641 9.56662 8.78043C6.09296 12.2044 4.10654 16.8581 4.03687 21.7351C4.10316 16.4315 9.367 12.1621 15.6385 12.1621C16.1424 12.1621 19.0328 12.2151 21.7377 13.6206C23.6169 14.5576 25.173 16.0352 26.206 17.8635C27.0943 19.4015 27.2667 21.3638 27.2667 22.1329C27.2667 22.9151 26.8689 24.0687 26.1264 25.0233Z" fill="url(#paint5_radial_19262_13890)"/>
<defs>
<linearGradient id="paint0_linear_19262_13890" x1="12.552" y1="29.1111" x2="38.4124" y2="29.1111" gradientUnits="userSpaceOnUse">
<stop stop-color="#0C59A4"/>
<stop offset="1" stop-color="#114A8B"/>
</linearGradient>
<radialGradient id="paint1_radial_19262_13890" cx="0" cy="0" r="1" gradientUnits="userSpaceOnUse" gradientTransform="translate(26.8346 29.3153) scale(13.8305 13.1392)">
<stop offset="0.72" stop-opacity="0"/>
<stop offset="0.95" stop-opacity="0.53"/>
<stop offset="1"/>
</radialGradient>
<linearGradient id="paint2_linear_19262_13890" x1="26.1849" y1="17.8925" x2="10.0328" y2="35.4859" gradientUnits="userSpaceOnUse">
<stop stop-color="#1B9DE2"/>
<stop offset="0.16" stop-color="#1595DF"/>
<stop offset="0.67" stop-color="#0680D7"/>
<stop offset="1" stop-color="#0078D4"/>
</linearGradient>
<radialGradient id="paint3_radial_19262_13890" cx="0" cy="0" r="1" gradientUnits="userSpaceOnUse" gradientTransform="translate(14.273 32.2945) rotate(-81.3844) scale(20.7975 16.8024)">
<stop offset="0.76" stop-opacity="0"/>
<stop offset="0.95" stop-opacity="0.5"/>
<stop offset="1"/>
</radialGradient>
<radialGradient id="paint4_radial_19262_13890" cx="0" cy="0" r="1" gradientUnits="userSpaceOnUse" gradientTransform="translate(7.78767 10.3085) rotate(92.291) scale(29.3768 62.5668)">
<stop stop-color="#35C1F1"/>
<stop offset="0.11" stop-color="#34C1ED"/>
<stop offset="0.23" stop-color="#2FC2DF"/>
<stop offset="0.31" stop-color="#2BC3D2"/>
<stop offset="0.67" stop-color="#36C752"/>
</radialGradient>
<radialGradient id="paint5_radial_19262_13890" cx="0" cy="0" r="1" gradientUnits="userSpaceOnUse" gradientTransform="translate(38.8485 14.6614) rotate(73.7398) scale(14.1147 11.4782)">
<stop stop-color="#66EB6E"/>
<stop offset="1" stop-color="#66EB6E" stop-opacity="0"/>
</radialGradient>
</defs>
</svg>
