<svg width="45" height="44" viewBox="0 0 45 44" fill="none" xmlns="http://www.w3.org/2000/svg">
<path d="M40.2547 15.2126C39.4136 13.1216 37.7157 10.8614 36.3916 10.1695C37.3408 12.0826 37.997 14.1241 38.3388 16.2273V16.2581C36.158 10.6154 32.4818 8.35529 29.4598 3.40451L28.9925 2.63576L28.79 2.22063C28.6533 1.95699 28.5487 1.67829 28.4785 1.39038L28.4629 1.375H28.4006C23.5717 4.31164 21.9205 9.76979 21.7648 12.4912C19.8332 12.6296 17.9795 13.3676 16.4685 14.6129C16.3128 14.4592 16.1414 14.3362 15.9701 14.2132C15.5254 12.6104 15.504 10.9219 15.9078 9.30854C14.1121 10.2188 12.5306 11.4918 11.2658 13.0447C10.4869 12.0453 10.5493 8.73966 10.596 8.03241C10.3623 8.12466 10.1598 8.24766 9.95733 8.38604C6.75242 10.894 4.53718 14.4294 3.69534 18.3798L3.64861 18.5028L3.46169 19.7328V19.7943C3.29279 20.7086 3.18869 21.6333 3.15015 22.5619V22.6541C3.15015 27.6664 4.97266 32.4788 8.24385 36.1688C11.4035 39.8285 15.8908 42.1198 20.7426 42.5509C25.5944 42.9821 30.4241 41.5188 34.1953 38.4751C38.0643 35.3407 40.6357 30.9156 41.423 26.0366L41.5009 25.2679C41.9059 21.8546 41.4853 18.4106 40.2547 15.2126ZM18.0418 30.8798L18.3066 31.0335H18.3222C18.2329 30.984 18.1446 30.9328 18.0574 30.8798H18.0418Z" fill="url(#paint0_linear_19262_13864)"/>
<path d="M40.2549 15.213C39.4137 13.122 37.7158 10.8619 36.3917 10.1546C37.3424 12.0725 37.9986 14.1193 38.3389 16.2278V16.2739C39.8343 20.6712 39.6162 25.5143 37.7469 29.7578C36.4015 32.7775 34.1593 35.323 31.3168 37.058C28.4743 38.793 25.1653 39.6358 21.8272 39.4749C12.7925 39.2135 4.81702 32.2486 3.32162 23.1312C3.05681 21.6859 3.32162 20.9633 3.46181 19.7948C3.27489 20.7019 3.16585 21.6244 3.15027 22.5469V22.6546C3.15027 27.6515 4.97279 32.4792 8.24397 36.1539C11.5152 39.8439 15.9858 42.1194 20.7835 42.5499C25.5968 42.965 30.379 41.5044 34.1954 38.4601C38.0612 35.3296 40.6322 30.9105 41.4231 26.0371L41.501 25.2683C41.906 21.8551 41.4854 18.3957 40.2549 15.213Z" fill="url(#paint1_radial_19262_13864)"/>
<path d="M40.2549 15.213C39.4137 13.122 37.7158 10.8619 36.3917 10.1546C37.3424 12.0725 37.9986 14.1193 38.3389 16.2278V16.2739C39.8343 20.6712 39.6162 25.5143 37.7469 29.7578C36.4015 32.7775 34.1593 35.323 31.3168 37.058C28.4743 38.793 25.1653 39.6358 21.8272 39.4749C12.7925 39.2135 4.81702 32.2486 3.32162 23.1312C3.05681 21.6859 3.32162 20.9633 3.46181 19.7948C3.27489 20.7019 3.16585 21.6244 3.15027 22.5469V22.6546C3.15027 27.6515 4.97279 32.4792 8.24397 36.1539C11.5152 39.8439 15.9858 42.1194 20.7835 42.5499C25.5968 42.965 30.379 41.5044 34.1954 38.4601C38.0612 35.3296 40.6322 30.9105 41.4231 26.0371L41.501 25.2683C41.906 21.8551 41.4854 18.3957 40.2549 15.213Z" fill="url(#paint2_radial_19262_13864)"/>
<path d="M30.8931 17.565L31.0021 17.6572C30.5269 16.7702 29.9293 15.9527 29.2263 15.2279C23.2291 9.01641 27.653 1.75938 28.4007 1.39038V1.375C23.5718 4.31164 21.9207 9.76979 21.7649 12.4912L22.4503 12.4604C24.1638 12.4604 25.8461 12.9217 27.3259 13.8288C28.828 14.7419 30.0587 16.0308 30.8931 17.565Z" fill="url(#paint3_radial_19262_13864)"/>
<path d="M22.4657 18.8105C22.4345 19.3025 20.7366 21.0245 20.1291 21.0245C14.6616 21.0245 13.7737 24.4531 13.7737 24.4531C13.9266 25.8302 14.42 27.1491 15.2104 28.2939C16.0008 29.4386 17.064 30.3742 18.3066 31.0183L18.6337 31.172L19.2101 31.418C20.0045 31.7102 20.8612 31.8793 21.7024 31.91C31.3135 32.3713 33.1827 19.9944 26.2509 16.3966C27.8952 16.1829 29.5593 16.6073 30.8929 17.5805C30.0585 16.0463 28.8278 14.7574 27.3257 13.8443C25.6606 12.8394 23.719 12.3733 21.7723 12.5111C19.8256 12.649 17.9712 13.3839 16.4685 14.6131C16.7645 14.8745 17.0916 15.2281 17.7926 15.9353C19.101 17.273 22.4657 18.6567 22.4657 18.8258V18.8105Z" fill="url(#paint4_radial_19262_13864)"/>
<path d="M22.4657 18.8105C22.4345 19.3025 20.7366 21.0245 20.1291 21.0245C14.6616 21.0245 13.7737 24.4531 13.7737 24.4531C13.9266 25.8302 14.42 27.1491 15.2104 28.2939C16.0008 29.4386 17.064 30.3742 18.3066 31.0183L18.6337 31.172L19.2101 31.418C20.0045 31.7102 20.8612 31.8793 21.7024 31.91C31.3135 32.3713 33.1827 19.9944 26.2509 16.3966C27.8952 16.1829 29.5593 16.6073 30.8929 17.5805C30.0585 16.0463 28.8278 14.7574 27.3257 13.8443C25.6606 12.8394 23.719 12.3733 21.7723 12.5111C19.8256 12.649 17.9712 13.3839 16.4685 14.6131C16.7645 14.8745 17.0916 15.2281 17.7926 15.9353C19.101 17.273 22.4657 18.6567 22.4657 18.8258V18.8105Z" fill="url(#paint5_radial_19262_13864)"/>
<path d="M15.565 13.9367L15.97 14.2134C15.5305 12.6093 15.5144 10.9208 15.9233 9.30878C14.122 10.2173 12.535 11.4903 11.2657 13.0449C11.3748 13.0449 14.1631 12.9834 15.565 13.9367Z" fill="url(#paint6_radial_19262_13864)"/>
<path d="M3.32134 23.1312C4.81674 32.2487 12.7766 39.2136 21.8269 39.4749C25.165 39.6358 28.474 38.7931 31.3165 37.0581C34.159 35.3231 36.4012 32.7775 37.7467 29.7579C39.6159 25.5144 39.834 20.6866 38.3386 16.2739V16.2278L38.3542 16.2586C39.024 20.9018 36.7653 25.376 33.2137 28.4049L33.1982 28.4356C26.2819 34.2782 19.6773 31.9719 18.3221 31.0186C16.5185 30.2633 15.0032 28.9642 13.9931 27.3072C12.983 25.6502 12.53 23.7202 12.6987 21.7936C11.741 21.8054 10.802 21.5321 10.0039 21.0095C9.17941 20.4694 8.53036 19.706 8.13465 18.8108C9.18293 18.1443 10.3924 17.7659 11.6382 17.7145C12.8841 17.6632 14.1213 17.9408 15.2222 18.5187C17.5121 19.595 20.0978 19.7026 22.45 18.8262C22.45 18.6571 19.1009 17.2733 17.7769 15.9203C17.0915 15.2131 16.7644 14.8748 16.4528 14.6134C16.179 14.3655 15.8817 14.1441 15.5649 13.9523C14.163 12.9991 11.3591 13.0452 11.2656 13.0452C10.5024 12.0458 10.5491 8.74016 10.5958 8.04828C10.3778 8.14053 10.1597 8.26353 9.95717 8.40191C6.74546 10.9065 4.52428 14.4426 3.67961 18.3957C3.66403 18.4111 2.97864 21.5322 3.30576 23.1312H3.32134Z" fill="url(#paint7_radial_19262_13864)"/>
<path d="M29.2262 15.2279C29.9272 15.9506 30.5347 16.7655 31.0176 17.6572L31.298 17.9032C35.6751 22.0852 33.3853 27.9893 33.214 28.4198C36.7655 25.3909 39.0398 20.886 38.3544 16.2735C36.1736 10.6308 32.4818 8.35529 29.4599 3.40451L28.9926 2.63576L28.7901 2.22063C28.6534 1.95699 28.5488 1.67829 28.4785 1.39038L28.463 1.375H28.4007C27.653 1.75938 23.2291 9.01641 29.2262 15.2279Z" fill="url(#paint8_radial_19262_13864)"/>
<path d="M31.298 17.9035L31.002 17.6575L30.893 17.5653C29.5531 16.5936 27.8828 16.1745 26.2354 16.3968C33.1672 19.9945 31.3135 32.3868 21.7181 31.9256C20.65 31.8755 19.6022 31.6196 18.6338 31.1722L18.3223 31.0185C19.6775 31.9717 26.2822 34.2933 33.2139 28.4508V28.4201C33.3853 28.0049 35.6751 22.0855 31.3135 17.9189H31.298V17.9035Z" fill="url(#paint9_radial_19262_13864)"/>
<path d="M13.7738 24.4531C13.7738 24.4531 14.6617 21.0244 20.1292 21.0244C20.7367 21.0244 22.4191 19.3024 22.4658 18.8104C21.3008 19.2484 20.0575 19.447 18.812 19.3942C17.5665 19.3413 16.3451 19.038 15.2225 18.5029C14.1211 17.9241 12.8827 17.6473 11.6361 17.7014C10.3896 17.7555 9.18053 18.1384 8.13489 18.8104C8.53311 19.6999 9.18194 20.4578 10.0041 20.9937C10.8141 21.5318 11.7488 21.7932 12.7145 21.7778C12.5534 23.6465 12.978 25.519 13.9309 27.1415C14.8838 28.7641 16.3189 30.0584 18.0419 30.8491L18.3067 31.0029C17.0653 30.3612 16.0027 29.4283 15.2122 28.2862C14.4218 27.1441 13.9278 25.8278 13.7738 24.4531Z" fill="url(#paint10_radial_19262_13864)"/>
<path d="M40.2547 15.2126C39.4136 13.1216 37.7157 10.8614 36.3916 10.1695C37.3408 12.0826 37.997 14.1241 38.3388 16.2273V16.2581C36.158 10.6154 32.4818 8.35529 29.4598 3.40451L28.9925 2.63576L28.79 2.22063C28.6533 1.95699 28.5487 1.67829 28.4785 1.39038L28.4629 1.375H28.4006C23.5717 4.31164 21.9205 9.76979 21.7647 12.4912L22.4346 12.4604C24.148 12.4604 25.8459 12.9217 27.3258 13.8288C28.8279 14.7419 30.0585 16.0308 30.8929 17.565C29.553 16.5933 27.8827 16.1742 26.2354 16.3965C33.1672 19.9942 31.3135 32.3865 21.718 31.9253C20.65 31.8752 19.6022 31.6193 18.6338 31.1719L18.3066 31.0181C18.2174 30.9739 18.1291 30.9278 18.0418 30.8798C18.1353 30.9259 18.2132 30.9874 18.3066 31.0181C17.0652 30.3765 16.0026 29.4436 15.2122 28.3015C14.4217 27.1594 13.9278 25.8431 13.7737 24.4684C13.7737 24.4684 14.6616 21.0397 20.1292 21.0397C20.7367 21.0397 22.419 19.3177 22.4657 18.8103C22.4657 18.6566 19.1011 17.2728 17.7926 15.9352C17.0916 15.2126 16.7645 14.8743 16.4685 14.6129L15.9701 14.2286C15.5305 12.6244 15.5144 10.9359 15.9233 9.32392C14.1236 10.2279 12.5367 11.4957 11.2658 13.0447C10.5025 12.0453 10.5648 8.73966 10.596 8.04778C10.3779 8.14003 10.1598 8.26303 9.95733 8.40141C9.27194 8.89341 8.64885 9.46229 8.0725 10.0773C5.86817 12.3952 4.35367 15.2679 3.69534 18.3798L3.64861 18.5028C3.61746 18.672 3.44611 19.5791 3.43053 19.7636C3.27476 20.6861 3.1813 21.6086 3.15015 22.5465V22.6541C3.15015 27.6664 4.97266 32.4788 8.22827 36.1688C11.3879 39.8285 15.8752 42.1198 20.727 42.5509C25.5788 42.9821 30.4085 41.5188 34.1797 38.4751C38.0487 35.3407 40.6201 30.9156 41.4074 26.0366L41.5009 25.2679C41.8903 21.8546 41.4697 18.4106 40.2547 15.2126Z" fill="url(#paint11_linear_19262_13864)"/>
<defs>
<linearGradient id="paint0_linear_19262_13864" x1="37.725" y1="7.76334" x2="3.64819" y2="37.4265" gradientUnits="userSpaceOnUse">
<stop offset="0.048" stop-color="#FFF44F"/>
<stop offset="0.111" stop-color="#FFE847"/>
<stop offset="0.225" stop-color="#FFC830"/>
<stop offset="0.368" stop-color="#FF980E"/>
<stop offset="0.401" stop-color="#FF8B16"/>
<stop offset="0.462" stop-color="#FF672A"/>
<stop offset="0.534" stop-color="#FF3647"/>
<stop offset="0.705" stop-color="#E31587"/>
</linearGradient>
<radialGradient id="paint1_radial_19262_13864" cx="0" cy="0" r="1" gradientUnits="userSpaceOnUse" gradientTransform="translate(36.8746 5.95722) scale(40.1776 41.6912)">
<stop offset="0.129" stop-color="#FFBD4F"/>
<stop offset="0.186" stop-color="#FFAC31"/>
<stop offset="0.247" stop-color="#FF9D17"/>
<stop offset="0.283" stop-color="#FF980E"/>
<stop offset="0.403" stop-color="#FF563B"/>
<stop offset="0.467" stop-color="#FF3750"/>
<stop offset="0.71" stop-color="#F5156C"/>
<stop offset="0.782" stop-color="#EB0878"/>
<stop offset="0.86" stop-color="#E50080"/>
</radialGradient>
<radialGradient id="paint2_radial_19262_13864" cx="0" cy="0" r="1" gradientUnits="userSpaceOnUse" gradientTransform="translate(22.1932 23.0005) scale(40.1776 41.6912)">
<stop offset="0.3" stop-color="#960E18"/>
<stop offset="0.351" stop-color="#B11927" stop-opacity="0.74"/>
<stop offset="0.435" stop-color="#DB293D" stop-opacity="0.343"/>
<stop offset="0.497" stop-color="#F5334B" stop-opacity="0.094"/>
<stop offset="0.53" stop-color="#FF3750" stop-opacity="0"/>
</radialGradient>
<radialGradient id="paint3_radial_19262_13864" cx="0" cy="0" r="1" gradientUnits="userSpaceOnUse" gradientTransform="translate(27.0362 -3.50505) scale(29.1067 30.2034)">
<stop offset="0.132" stop-color="#FFF44F"/>
<stop offset="0.252" stop-color="#FFDC3E"/>
<stop offset="0.506" stop-color="#FF9D12"/>
<stop offset="0.526" stop-color="#FF980E"/>
</radialGradient>
<radialGradient id="paint4_radial_19262_13864" cx="0" cy="0" r="1" gradientUnits="userSpaceOnUse" gradientTransform="translate(17.749 33.8904) scale(19.1304 19.8509)">
<stop offset="0.353" stop-color="#3A8EE6"/>
<stop offset="0.472" stop-color="#5C79F0"/>
<stop offset="0.669" stop-color="#9059FF"/>
<stop offset="1" stop-color="#C139E6"/>
</radialGradient>
<radialGradient id="paint5_radial_19262_13864" cx="0" cy="0" r="1" gradientUnits="userSpaceOnUse" gradientTransform="translate(24.3886 19.5836) rotate(-14.0835) scale(10.1643 12.2959)">
<stop offset="0.206" stop-color="#9059FF" stop-opacity="0"/>
<stop offset="0.278" stop-color="#8C4FF3" stop-opacity="0.064"/>
<stop offset="0.747" stop-color="#7716A8" stop-opacity="0.45"/>
<stop offset="0.975" stop-color="#6E008B" stop-opacity="0.6"/>
</radialGradient>
<radialGradient id="paint6_radial_19262_13864" cx="0" cy="0" r="1" gradientUnits="userSpaceOnUse" gradientTransform="translate(21.6868 4.25038) scale(13.7622 14.2808)">
<stop stop-color="#FFE226"/>
<stop offset="0.121" stop-color="#FFDB27"/>
<stop offset="0.295" stop-color="#FFC82A"/>
<stop offset="0.502" stop-color="#FFA930"/>
<stop offset="0.732" stop-color="#FF7E37"/>
<stop offset="0.792" stop-color="#FF7139"/>
</radialGradient>
<radialGradient id="paint7_radial_19262_13864" cx="0" cy="0" r="1" gradientUnits="userSpaceOnUse" gradientTransform="translate(32.5034 -4.80682) scale(58.7175 60.9296)">
<stop offset="0.113" stop-color="#FFF44F"/>
<stop offset="0.456" stop-color="#FF980E"/>
<stop offset="0.622" stop-color="#FF5634"/>
<stop offset="0.716" stop-color="#FF3647"/>
<stop offset="0.904" stop-color="#E31587"/>
</radialGradient>
<radialGradient id="paint8_radial_19262_13864" cx="0" cy="0" r="1" gradientUnits="userSpaceOnUse" gradientTransform="translate(27.5548 -1.42019) rotate(84.1931) scale(44.6393 28.2551)">
<stop stop-color="#FFF44F"/>
<stop offset="0.06" stop-color="#FFE847"/>
<stop offset="0.168" stop-color="#FFC830"/>
<stop offset="0.304" stop-color="#FF980E"/>
<stop offset="0.356" stop-color="#FF8B16"/>
<stop offset="0.455" stop-color="#FF672A"/>
<stop offset="0.57" stop-color="#FF3647"/>
<stop offset="0.737" stop-color="#E31587"/>
</radialGradient>
<radialGradient id="paint9_radial_19262_13864" cx="0" cy="0" r="1" gradientUnits="userSpaceOnUse" gradientTransform="translate(21.3614 9.53947) scale(36.6583 38.0396)">
<stop offset="0.137" stop-color="#FFF44F"/>
<stop offset="0.48" stop-color="#FF980E"/>
<stop offset="0.592" stop-color="#FF5634"/>
<stop offset="0.655" stop-color="#FF3647"/>
<stop offset="0.904" stop-color="#E31587"/>
</radialGradient>
<radialGradient id="paint10_radial_19262_13864" cx="0" cy="0" r="1" gradientUnits="userSpaceOnUse" gradientTransform="translate(31.0379 11.7656) scale(40.1225 41.6342)">
<stop offset="0.094" stop-color="#FFF44F"/>
<stop offset="0.231" stop-color="#FFE141"/>
<stop offset="0.509" stop-color="#FFAF1E"/>
<stop offset="0.626" stop-color="#FF980E"/>
</radialGradient>
<linearGradient id="paint11_linear_19262_13864" x1="37.3309" y1="7.59883" x2="8.26274" y2="33.8074" gradientUnits="userSpaceOnUse">
<stop offset="0.167" stop-color="#FFF44F" stop-opacity="0.8"/>
<stop offset="0.266" stop-color="#FFF44F" stop-opacity="0.634"/>
<stop offset="0.489" stop-color="#FFF44F" stop-opacity="0.217"/>
<stop offset="0.6" stop-color="#FFF44F" stop-opacity="0"/>
</linearGradient>
</defs>
</svg>
